<svg xmlns="http://www.w3.org/2000/svg" viewBox="0 0 504 504"><defs><style>.cls-1{fill:#f2272c;}.cls-2{fill:#f32d32;}.cls-3{fill:#f32b30;}.cls-4{fill:#f2282d;}.cls-5{fill:#f22a2f;}.cls-6{fill:#f22b30;}.cls-7{fill:#f22b2f;}.cls-8{fill:#f32f34;}.cls-9{fill:#f33034;}</style></defs><title>bd-logo</title><g id="Layer_2" data-name="Layer 2"><g id="Layer_1-2" data-name="Layer 1"><path class="cls-1" d="M251.93,504C112.64,504-.06,391.08,0,251.61.06,112.42,113.09-.12,252.7,0,391.61.12,504.1,113.19,504,252.6,503.9,391.32,390.91,504,251.93,504Zm2.16-13.44c6.07-.51,14.05-.9,22-1.89a249.49,249.49,0,0,0,89-28.45c23.28-12.67,44.53-28.08,62.19-48a246.69,246.69,0,0,0,52.87-95.44c8.49-29,12.6-58.47,8.62-88.73-4.25-32.27-13.85-62.78-29.69-91.24-12.47-22.41-27.48-42.92-46.75-60a246.43,246.43,0,0,0-96.23-53.13c-27.48-7.92-55.4-12.06-84.16-8.79a253.27,253.27,0,0,0-90.2,27.43C117.63,55,95.68,70.65,77.45,91A247.35,247.35,0,0,0,21.24,196.71c-6.58,26-9.56,52.23-6,79,4.33,32.84,14.16,63.85,30.44,92.73,12.24,21.72,26.91,41.61,45.56,58.31a248.64,248.64,0,0,0,75.84,46.49C194.42,484,222.83,489.61,254.08,490.56Z"/><path class="cls-2" d="M282,123h8.56c0,2.91-.08,5.79,0,8.67a15.37,15.37,0,0,0,.75,4.89c3.65,9.36,7.44,18.68,11.2,28,.26.63.65,1.21,1.26,2.34,2.71-6.75,5.18-13.08,7.78-19.36,3.2-7.75,6.79-15.4,4.73-24.46h9V245.11h-8.59V161.63l-.77-.2-12.28,30.49-12.46-30.37-.59.15V245H282Z"/><path class="cls-3" d="M74.43,245.29V122.94c6.94,0,13.81-.62,20.51.16,8.5,1,14.23,8.42,14.26,17.06,0,7.7-.19,15.41.07,23.1.21,6.12-.81,11.67-5.49,16.38,4.93,4.84,5.65,10.75,5.49,17.11-.25,10.35-.29,20.72,0,31.07.26,9.6-8.61,18-17.55,17.53C86,245,80.33,245.29,74.43,245.29Zm8.76-9.1c3.16,0,6,.34,8.67-.11a14.07,14.07,0,0,0,5.87-2.67c2.53-1.91,2.9-5,2.91-8q.05-15.07,0-30.14a17.76,17.76,0,0,0-.51-4.14c-.88-3.55-3.21-6.13-6.7-6.73-3.31-.57-6.8-.12-10.24-.12Zm0-60.78c2.08,0,3.86,0,5.65,0,8.09-.12,11.71-3.72,11.77-11.83q.08-10.25,0-20.51a17.25,17.25,0,0,0-.65-4.94c-1.08-3.44-3.44-5.85-7.09-6.25a89.74,89.74,0,0,0-9.65-.07Z"/><path class="cls-4" d="M134.88,273.85l-10.45-10,7.39-5.67,5.92,5.72c1.06-.95,1.94-1.8,2.88-2.57,5.83-4.79,12.31-5.94,19.15-2.73,6.63,3.12,10.11,8.5,10.07,16-.06,11.19-.18,22.38.05,33.57.12,6.11-.59,11.72-5.77,16.18,5.27,4.76,5.88,10.67,5.77,17-.22,13.13-.07,26.26-.07,39.66h-8.68v-4.21c0-11.75,0-23.5,0-35.25a26.74,26.74,0,0,0-.58-5.81,8.66,8.66,0,0,0-8.11-6.64c-2.24-.08-4.48,0-6.71,0-.54,0-1.07.09-1.94.17v51.76h-8.89ZM143.65,320c2.34,0,4.14,0,5.94,0,7.91-.05,11.51-3.63,11.55-11.58q.06-15.32,0-30.64a19.56,19.56,0,0,0-.58-5,8.46,8.46,0,0,0-6.83-6.59c-3.77-.71-6.68,1.05-8.41,4.19a14.15,14.15,0,0,0-1.58,6.35c-.17,8.39-.07,16.79-.07,25.18C143.65,307.83,143.65,313.69,143.65,320Z"/><path class="cls-5" d="M404.86,171.63V245H396.2V122.93h8.34v28.57l17,27.91.77-.16V123h8.42V245h-8.36v-4.22c0-12.59-.05-25.18,0-37.77a12.7,12.7,0,0,0-1.92-7.11c-4.56-7.36-9-14.8-13.47-22.21-.47-.78-1-1.51-1.53-2.27Z"/><path class="cls-5" d="M377.75,245.16h-8.19v-47.5H351.95V245h-8.68c-.07-1-.23-2-.23-3.12,0-34.27.12-68.54-.08-102.81-.07-11.39,10.73-21.8,24-17a17.1,17.1,0,0,1,11,15.47q.06,53.08,0,106.16A11.56,11.56,0,0,1,377.75,245.16ZM369,188.09a5.8,5.8,0,0,0,.36-1.18q0-23.07,0-46.13a15.39,15.39,0,0,0-.68-4.53c-2.08-6.58-9.61-8.24-14.36-3.28a9.83,9.83,0,0,0-2.56,7.28c0,15.38,0,30.76,0,46.14a12.75,12.75,0,0,0,.25,1.71Z"/><path class="cls-3" d="M74.46,381.37V259c6.9,0,13.63-.55,20.24.14,8.45.88,14.5,8.36,14.5,16.87,0,29.39-.09,58.78.07,88.16.05,9.57-8.73,17.71-17.35,17.29C86.22,381.15,80.48,381.37,74.46,381.37Zm8.95-113.5V372.22c3.28,0,6.24.23,9.14-.06a8.3,8.3,0,0,0,7.46-6.38,17.79,17.79,0,0,0,.63-5q.06-40.72,0-81.43a21,21,0,0,0-.6-5c-.85-3.44-4.07-6.33-7.36-6.52C89.64,267.74,86.58,267.87,83.41,267.87Z"/><path class="cls-6" d="M229.08,123h8.53v47.55h17.56V123h8.38V245.29h-8.29V180.07H237.64v65h-8.55Z"/><path class="cls-7" d="M127.15,122.86H136v4.52q0,49.53,0,99.05c0,3,0,5.86,2.14,8.29s4.81,3.89,8.16,3.16a8.44,8.44,0,0,0,6.64-6.29,23.67,23.67,0,0,0,.65-6.22q.06-48.69,0-97.37v-4.92h8.56v3.81c0,34.14-.15,68.28.1,102.41.07,9.56-8.2,18-17.32,17.74-10.24-.23-17.7-7.36-17.74-17.73-.07-17.63,0-35.26,0-52.88V122.86Z"/><path class="cls-7" d="M339.67,258.94h8.82v4.53q0,49.53,0,99.05c0,3,0,5.86,2.15,8.28s4.82,3.88,8.16,3.14a8.44,8.44,0,0,0,6.63-6.31,23.9,23.9,0,0,0,.64-6.22q.06-48.69,0-97.37c0-1.53,0-3.07,0-4.91h8.26a29.36,29.36,0,0,1,.28,3c0,34.56-.09,69.11.09,103.67,0,8.24-7,16.83-16.47,17.33a17.62,17.62,0,0,1-18.58-16.52c0-.84,0-1.68,0-2.52q0-50.37,0-100.73C339.67,262,339.67,260.64,339.67,258.94Z"/><path class="cls-7" d="M395.74,352.51h9c0,3.84-.05,7.46,0,11.06a15,15,0,0,0,.57,4.53,8.83,8.83,0,0,0,9.1,6,8.4,8.4,0,0,0,7.29-8q.44-11.53.11-23.08c0-1.77-1.38-3.59-2.36-5.24-7.87-13.2-15.8-26.36-23.75-39.61,0-8.23-.22-16.5.06-24.74.31-9.16,8.84-17,18.73-16.43a17.51,17.51,0,0,1,16.38,17c.05,4.46,0,8.92,0,13.63H422c0-2.67,0-5.15,0-7.63,0-2,0-3.93-.21-5.87a8.56,8.56,0,0,0-7.87-7.89c-3.87-.19-8.5,2.92-8.78,6.92-.5,7.1-.31,14.26-.21,21.39,0,1.11,1,2.24,1.66,3.31q11.2,18.7,22.45,37.37a12.64,12.64,0,0,1,2,7.07c-.15,7.84-.26,15.68,0,23.51.31,9.06-8,17.29-17.26,17.42-8.91.12-18.11-7.58-18-17.25C395.79,361.6,395.74,357.27,395.74,352.51Z"/><path class="cls-7" d="M178.19,162c0-8.23-.12-16.21,0-24.18.19-10.37,9.81-17.42,18.24-17a17.49,17.49,0,0,1,16.91,17.31c0,4.33,0,8.66,0,13.28h-8.94c0-2.41,0-4.74,0-7.06,0-2.1,0-4.21-.2-6.29-.49-4.63-3.94-7.93-8.19-8a8.72,8.72,0,0,0-8.65,8.06c-.29,6.57-.2,13.15-.09,19.73a7.72,7.72,0,0,0,1.46,3.38q11.17,18.72,22.43,37.38a13.74,13.74,0,0,1,2.26,7.83c-.22,7.69-.31,15.41,0,23.09.35,9-7.85,17.76-17.59,17.46-9.94-.31-17.56-7.59-17.66-17.49,0-4.3,0-8.6,0-13.13h9c0,3.64-.05,7.1,0,10.55a17.59,17.59,0,0,0,.53,5,8.89,8.89,0,0,0,9,6.08,8.51,8.51,0,0,0,7.4-7.92c.31-4-.12-8.14.29-12.16.85-8.29-1.45-15.39-6-22.37C191.31,184.72,185,173.36,178.19,162Z"/><path class="cls-8" d="M218.16,259v8.78H200.88v43.56h17.25v8.78H200.91v52.24H218v8.75H192.07V259Z"/><path class="cls-4" d="M233.63,259h8.71c.11,1.17.29,2.24.29,3.3,0,9-.07,17.92.08,26.88a12.56,12.56,0,0,0,1.5,5.46c2.15,4,4.61,7.92,7.15,12.21,2.78-4.63,5.4-8.73,7.72-13a9.75,9.75,0,0,0,.77-4.44c.07-8.68,0-17.36,0-26V259h8.61a29.23,29.23,0,0,1,.3,3c0,10.22.09,20.44-.06,30.65a11.77,11.77,0,0,1-1.59,5.44c-3.69,6.41-7.61,12.7-11.69,19.43v63.54h-8.34V317.7c-4-6.66-7.84-13-11.73-19.31a11.27,11.27,0,0,1-1.81-6.29c.1-9.8,0-19.6,0-29.4Z"/><path class="cls-9" d="M317.06,267.89H299.25v43.46H316.3v8.8H299.1v61h-8.69V259.08h26.65Z"/></g></g></svg>