<?xml version="1.0" encoding="UTF-8"?>
<svg width="449px" height="70px" viewBox="0 0 449 70" version="1.1" xmlns="http://www.w3.org/2000/svg" xmlns:xlink="http://www.w3.org/1999/xlink">
    <title>Group</title>
    <g id="Page-1" stroke="none" stroke-width="1" fill="none" fill-rule="evenodd">
        <g id="Group" transform="translate(-224.000000, -6882.000000)">
            <g transform="translate(224.000000, 6882.000000)">
                <g id="Group-4" fill="#E8492E">
                    <path d="M34.6624347,10.4669809 C42.2364927,10.4669809 49.010261,13.8094142 53.5935943,19.0687849 L59.67229,10.6134684 C53.2906957,4.26883066 44.4715653,0.346748282 34.6831593,0.346748282 C17.0241739,0.346748282 2.54562319,13.2565423 0.00286956521,30.0017864 L10.3508406,30.0017864 C12.7644638,18.8624424 22.6676522,10.4669809 34.6624347,10.4669809" id="Fill-1"/>
                    <path d="M34.682681,69.9637105 C44.471087,69.9637105 53.2902173,66.0526542 59.6734057,59.7080165 L53.5835507,51.2511248 C49.0018117,56.504195 42.232826,59.8434778 34.6619567,59.8434778 C22.6671739,59.8434778 12.7655797,51.4495914 10.3519565,40.3102476 L0.00079710145,40.3102476 C2.53717391,57.0696677 17.0173188,69.9637105 34.682681,69.9637105" id="Fill-4"/>
                </g>
                <g id="Group-5" transform="translate(75.000000, 0.000000)" fill="#E8492E">
                    <path d="M40.0200894,0.221507831 L40.0200894,10.5223726 C51.1682432,12.9139551 59.5703447,22.7267095 59.5703447,34.6119581 C59.5703447,46.4972068 51.1682432,56.3083818 40.0200894,58.6999641 L40.0200894,69.0008291 C56.7896117,66.4670783 69.6985811,52.1223227 69.6985811,34.6119581 C69.6985811,17.087377 56.7896117,2.74262119 40.0200894,0.221507831" id="Fill-6"/>
                    <path d="M10.1535352,34.6119581 C10.1535352,22.7267095 18.5556366,12.9155347 29.7037906,10.5223726 L29.7037906,0.218348544 C12.9295391,2.72366545 0.0252985875,17.0826381 0.0252985875,34.6119581 C0.0252985875,52.1270613 12.9295391,66.4891935 29.7037906,69.0039883 L29.7037906,58.6999641 C18.5556366,56.3083818 10.1535352,46.4972068 10.1535352,34.6119581" id="Fill-8"/>
                </g>
                <g id="Group-9" transform="translate(389.000000, 3.000000)" fill="#E8492E">
                    <polygon id="Fill-10" points="47.9107637 0.150511193 35.9514268 19.9823339 41.7597535 29.6060309 59.5337046 0.150511193"/>
                    <polygon id="Fill-12" points="21.1954473 15.4081324 11.9712901 0.150976256 0.225737356 0.150976256 24.7150261 40.4533076 24.7150261 40.6951402 24.7150261 64.9822635 27.3496014 64.9822635 35.8600968 64.9822635 35.8600968 39.9045338 35.8600968 39.6627012 29.9495939 29.8886339"/>
                </g>
                <g id="Group-6" transform="translate(165.000000, 3.000000)" fill="#E8492E">
                    <polygon id="Fill-14" points="45.5457583 49.247798 12.9880675 0.151131277 10.6470622 0.151131277 0.219945874 0.151131277 43.2172969 64.9824184 45.5457583 64.9824184 55.9791465 64.9824184 55.9791465 0.151131277 45.5457583 0.151131277"/>
                    <polygon id="Fill-16" points="0.213517124 64.9830385 10.6469054 64.9830385 10.6469054 34.5012805 0.213517124 18.7682103"/>
                </g>
                <g id="Group-7" transform="translate(238.000000, 3.000000)" fill="#E8492E">
                    <polygon id="Fill-18" points="0.0487739889 0.150511193 25.6905443 64.9817984 25.6905443 64.9833487 25.6920963 64.9833487 35.8451324 64.9833487 10.20181 0.150511193"/>
                    <polygon id="Fill-20" points="36.2124853 38.384244 41.4830005 51.7082894 61.8744314 0.14989111 51.3349529 0.14989111"/>
                </g>
                <g id="Group-8" transform="translate(312.000000, 0.000000)" fill="#E8492E">
                    <path d="M39.9439987,0.221507831 L39.9439987,10.5223726 C51.0784787,12.9139551 59.4702747,22.7267095 59.4702747,34.6119581 C59.4702747,46.4972068 51.0784787,56.3083818 39.9439987,58.6999641 L39.9439987,69.0008291 C56.6929523,66.4670783 69.5860885,52.1223227 69.5860885,34.6119581 C69.5860885,17.087377 56.6929523,2.74262119 39.9439987,0.221507831" id="Fill-22"/>
                    <path d="M10.1140774,34.6119581 C10.1140774,22.7267095 18.5058732,12.9155347 29.6403534,10.5223726 L29.6403534,0.218348544 C12.8866764,2.72366545 -0.00173637705,17.0826381 -0.00173637705,34.6119581 C-0.00173637705,52.1270613 12.8866764,66.4891935 29.6403534,69.0039883 L29.6403534,58.6999641 C18.5058732,56.3083818 10.1140774,46.4972068 10.1140774,34.6119581" id="Fill-24"/>
                </g>
            </g>
        </g>
    </g>
</svg>