<svg height="32" width="26" xmlns="http://www.w3.org/2000/svg"><path d="M24.95 32c-.2 0-.401-.058-.577-.176L12.99 24.22 1.625 31.773a1.038 1.038 0 0 1-1.241-.068 1.072 1.072 0 0 1-.307-1.22L11.987.665A1.05 1.05 0 0 1 12.96 0c.427 0 .812.262.972.663l11.99 29.874c.174.431.05.926-.306 1.222-.192.16-.429.241-.666.241zm-10.049-9.05l7.803 5.213-3.294-8.208-4.509 2.995zM6.56 19.924L3.282 28.13l7.8-5.183-4.523-3.022zm.803-2.01l5.631 3.761 5.611-3.728-5.641-14.055-5.601 14.022z" fill="#000" fill-rule="evenodd"></path></svg>