<?xml version="1.0" encoding="UTF-8"?>
<!-- Generator: Adobe Illustrator 19.1.0, SVG Export Plug-In . SVG Version: 6.00 Build 0)  -->
<!DOCTYPE svg PUBLIC "-//W3C//DTD SVG 1.1//EN" "http://www.w3.org/Graphics/SVG/1.1/DTD/svg11.dtd">
<svg version="1.1" id="Layer_1" xmlns="http://www.w3.org/2000/svg" xmlns:xlink="http://www.w3.org/1999/xlink" x="0px" y="0px" viewBox="0 0 455 90.369" enable-background="new 0 0 455 90.369" xml:space="preserve">
<path fill="#63666A" d="M258.499,1.4v87.571h16.454V1.4H258.499z M291.407,1.4h-8.227v16.457h8.227  c15.069,0,27.329,12.259,27.329,27.328c0,15.069-12.26,27.329-27.329,27.329v0h-8.227v16.457h8.227  c24.182,0,43.785-19.603,43.785-43.785S315.589,1.4,291.407,1.4z M405.508,73.809v16.56c-23.133-2.08-41.265-21.51-41.265-45.185  c0-23.675,18.132-43.105,41.265-45.185v16.56c-14.005,2.004-24.808,14.074-24.808,28.624S391.502,71.805,405.508,73.809z   M413.735,90.369v-16.56c14.006-2.004,24.808-14.074,24.808-28.624S427.74,18.564,413.735,16.56V0  C436.868,2.08,455,21.51,455,45.185C455,68.859,436.868,88.289,413.735,90.369z M49.176,75.291L40.55,47.933L55.222,1.4h17.253  L49.176,75.291z M0,1.4l27.611,87.571l0,0h17.252L34.391,55.758L17.252,1.4H0z M97.159,88.971h17.253l14.672-46.532l-8.626-27.359  L97.159,88.971z M161.007,61.612L142.023,1.4H124.77l27.611,87.571h17.253l0,0l14.601-46.307l-8.626-27.359L161.007,61.612z   M207.603,88.971h17.252L197.245,1.4h-17.253l8.626,27.359L207.603,88.971z"/>
</svg>